<svg width="91" height="80" viewBox="0 0 91 80" fill="none" xmlns="http://www.w3.org/2000/svg">
<path d="M83.6463 55.5061C87.0713 42.3644 78.5156 28.7577 64.5367 25.1145C50.5578 21.4714 36.4492 29.1714 33.0242 42.313C29.5993 55.4547 38.155 69.0614 52.1339 72.7046C66.1128 76.3477 80.2214 68.6477 83.6463 55.5061Z" fill="#E7E9EE"/>
<path d="M81.2264 36.3949C77.5142 30.503 71.6563 26.2799 64.7427 24.4749C57.8291 22.6698 50.6431 23.5213 44.5128 26.8248C38.3825 30.1624 34.0913 35.6115 32.3884 42.1505C30.6856 48.6895 31.7754 55.535 35.4876 61.4269C39.1999 67.3188 45.0577 71.5418 51.9713 73.3469C54.3553 73.9599 56.7734 74.2664 59.1233 74.2664C70.839 74.2664 81.3967 66.876 84.3256 55.6712C86.0284 49.1322 84.9386 42.2867 81.2264 36.3949ZM82.9974 55.3306C82.5546 56.9654 81.9756 58.532 81.2264 59.9965L81.4307 58.3958C80.9199 59.2813 80.375 60.1327 79.7619 60.916L79.5576 62.7551C78.9446 63.6065 78.2975 64.3898 77.5823 65.1391L77.8207 63.1297C77.3098 63.6406 76.799 64.1174 76.2881 64.5601L76.0497 66.4673L76.0156 66.6376C75.4367 67.1485 74.7896 67.6593 74.1425 68.1361L74.1766 67.7615L74.3809 65.9905C73.9041 66.3311 73.3932 66.6376 72.8824 66.9441L72.678 68.6129L72.6099 69.1238C72.031 69.4984 71.4179 69.8049 70.8049 70.1455L70.873 69.4984L71.0433 67.8977C70.5665 68.1361 70.0897 68.3405 69.6129 68.5448L69.4426 70.0774L69.3404 70.8266C68.7615 71.065 68.1825 71.3034 67.5695 71.5078L67.6716 70.6904L67.8419 69.226C67.3651 69.3962 66.8883 69.5325 66.4115 69.6346L66.2412 71.065L66.1391 71.9505C65.5601 72.1208 64.9811 72.257 64.4022 72.3592L64.5043 71.4397L64.6746 70.0093C64.1978 70.1114 63.7551 70.1796 63.2783 70.2477L63.108 71.644L63.0739 72.5976C62.495 72.6998 61.95 72.7679 61.3711 72.802L61.4732 71.7802L61.6435 70.418C61.2008 70.452 60.724 70.4861 60.2812 70.4861L60.111 71.8484L59.9747 72.9041C59.4298 72.9382 58.8508 72.9041 58.3059 72.9041L58.4422 71.8484L58.6124 70.4861C58.1697 70.4861 57.6929 70.452 57.2502 70.3839L57.0799 71.7462L56.9436 72.836C56.3987 72.802 55.8538 72.7338 55.2748 72.6317L55.4111 71.5078L55.5814 70.1455C55.1386 70.0774 54.6959 70.0093 54.2531 69.9071L54.0828 71.2694L53.9466 72.3933C53.4017 72.2911 52.8568 72.1549 52.3119 72.0186L52.4481 70.8948L52.6184 69.5325C52.1756 69.3962 51.7329 69.26 51.2902 69.1238L51.1199 70.5201L50.9836 71.6781C50.4387 71.5078 49.8938 71.3034 49.383 71.0991L49.5192 69.9412L49.6895 68.5448C49.2467 68.3745 48.804 68.1702 48.3953 67.9999L48.225 69.4303L48.0888 70.5882C47.5439 70.3498 46.999 70.1114 46.4881 69.839L46.6243 68.681L46.7946 67.2166C46.3519 66.9782 45.9432 66.7398 45.5004 66.4673L45.3302 67.9318L45.1939 69.0557C44.649 68.7492 44.1382 68.4086 43.6273 68.034L43.7635 66.9441L43.9338 65.4115C43.4911 65.105 43.0824 64.7645 42.6737 64.4239L42.5034 66.0246L42.3672 67.1144C41.8563 66.7057 41.3455 66.263 40.8346 65.7862L40.9708 64.7645L41.1752 63.0957C40.7665 62.687 40.3578 62.2783 39.9491 61.8355L39.7448 63.6065L39.6426 64.5942C39.1318 64.0493 38.6209 63.4703 38.1782 62.8573L38.2803 61.9718L38.5187 60.0646C38.11 59.5197 37.7014 58.9407 37.3608 58.3617L37.1224 60.4392L37.0202 61.2225C36.918 61.0522 36.8159 60.916 36.7137 60.7457C33.2058 55.1603 32.15 48.6895 33.7507 42.5251C35.3514 36.3608 39.4383 31.2182 45.228 28.0509C49.0424 25.9734 53.2655 24.9176 57.5907 24.9176C59.8726 24.9176 62.1884 25.2241 64.4362 25.8031C71.0433 27.5059 76.5946 31.5587 80.1025 37.1441C83.5763 42.6954 84.6321 49.1663 82.9974 55.3306Z" fill="#191A1F"/>
<path d="M84.2824 53.0721C87.7073 39.9305 79.1517 26.3238 65.1727 22.6806C51.1938 19.0374 37.0852 26.7375 33.6603 39.8791C30.2353 53.0207 38.791 66.6275 52.7699 70.2706C66.7488 73.9138 80.8574 66.2138 84.2824 53.0721Z" fill="#E7E9EE"/>
<path d="M81.8392 33.9769C78.127 28.0851 72.2692 23.862 65.3556 22.0569C51.0175 18.3107 36.5092 26.246 33.0013 39.7326C31.2984 46.2716 32.3883 53.1171 36.1005 59.0089C39.8127 64.9008 45.6705 69.1239 52.5841 70.9289C54.9681 71.542 57.3862 71.8485 59.7361 71.8485C71.4518 71.8485 82.0095 64.4581 84.9384 53.2533C86.6753 46.7143 85.5515 39.8688 81.8392 33.9769ZM52.9588 69.6348C46.3517 67.9319 40.8004 63.8791 37.2925 58.2937C33.7846 52.7084 32.7288 46.2375 34.3295 40.0732C37.0881 29.4473 47.1009 22.4997 58.2036 22.4997C60.4513 22.4997 62.7332 22.7721 65.015 23.3852C71.6221 25.088 77.1734 29.1408 80.6813 34.7262C84.1892 40.3116 85.2449 46.7824 83.6443 52.9468C80.3067 65.6841 66.5476 73.1767 52.9588 69.6348Z" fill="#191A1F"/>
<path d="M64.4361 25.5985C58.5102 24.0659 52.3799 24.7811 47.1692 27.6079C41.9244 30.4687 38.2462 35.1005 36.8158 40.6858C33.8188 52.1971 41.3113 64.1853 53.5719 67.3526C55.6153 67.8975 57.6588 68.1359 59.6681 68.1359C69.6809 68.1359 78.7061 61.8353 81.1922 52.2312C84.1552 40.7539 76.6626 28.7999 64.4361 25.5985Z" fill="#191A1F"/>
<path d="M51.0172 44.8391C50.7788 44.6007 50.5064 44.3623 50.1999 44.158C49.9274 43.9877 49.6209 43.8174 49.3484 43.6812L49.7912 42.0124C49.9615 42.0805 50.1317 42.1486 50.268 42.2508C50.6426 42.4551 50.9832 42.7276 51.3237 43.0681L52.5157 41.4675C52.1752 41.1269 51.7324 40.8204 51.2216 40.5479C50.9151 40.3776 50.5745 40.2414 50.2339 40.1392L50.5745 38.8451L49.11 38.4704L48.7695 39.7987C48.2927 39.7305 47.8499 39.7305 47.4412 39.7987C46.8282 39.9008 46.3173 40.1392 45.9427 40.4798C45.5681 40.8204 45.2956 41.2291 45.1594 41.7399C45.0572 42.1827 45.0232 42.5913 45.1253 42.9319C45.2275 43.2725 45.3978 43.579 45.6362 43.8174C45.8746 44.0558 46.1471 44.2942 46.4536 44.4985C46.7601 44.7029 47.0666 44.8732 47.4072 45.0435L46.9985 46.6441C46.692 46.5079 46.3855 46.3717 46.0789 46.2014C45.6362 45.9289 45.2275 45.5884 44.921 45.2478L43.6609 46.8144C44.0015 47.1891 44.4442 47.5637 45.0572 47.9043C45.5 48.1767 45.9768 48.3811 46.4876 48.5513L46.1471 49.8455L47.6115 50.2201L47.9521 48.8579C48.3948 48.926 48.8035 48.926 49.1781 48.8579C49.7912 48.7557 50.302 48.5173 50.6767 48.1767C51.0513 47.8361 51.3237 47.4275 51.46 46.9166C51.5621 46.4739 51.5962 46.0652 51.494 45.7587C51.3919 45.384 51.2556 45.0775 51.0172 44.8391ZM47.7137 42.6935C47.5775 42.5232 47.5093 42.3529 47.5775 42.1827C47.6115 42.0464 47.6796 41.9102 47.8159 41.8421C47.918 41.7399 48.0883 41.7059 48.2927 41.6718L47.9861 42.8979C47.884 42.8638 47.7818 42.7616 47.7137 42.6935ZM48.8376 46.7804C48.7354 46.8485 48.6332 46.8825 48.4629 46.8825L48.7354 45.7587C48.8035 45.7927 48.8376 45.8608 48.9057 45.8949C49.0419 46.0652 49.11 46.2355 49.0419 46.4398C49.0419 46.6101 48.9397 46.7123 48.8376 46.7804Z" fill="#E7E9EE"/>
<path d="M54.1278 41.2824L51.9204 49.7524L54.3263 50.3794L56.5337 41.9094L54.1278 41.2824Z" fill="#E7E9EE"/>
<path d="M62.7334 48.3478L60.1791 42.8646L58.2038 42.3538L55.9901 50.7999L58.34 51.413L59.532 46.9174L62.0863 52.4006L64.0616 52.9115L66.2753 44.4312L63.9254 43.8182L62.7334 48.3478Z" fill="#E7E9EE"/>
<path d="M73.1884 51.3775C73.0863 51.0369 72.916 50.7304 72.6776 50.492C72.4392 50.2536 72.1667 50.0152 71.8602 49.8109C71.5537 49.6065 71.2131 49.4363 70.9066 49.266C70.566 49.0957 70.2936 48.9595 70.0211 48.8232C69.7487 48.687 69.5443 48.5167 69.4081 48.3805C69.2719 48.2102 69.2037 48.0399 69.2719 47.8696C69.3059 47.7334 69.374 47.5972 69.5103 47.5291C69.6124 47.4269 69.7827 47.3928 70.0211 47.3588C70.2255 47.3588 70.532 47.3928 70.8385 47.4609C71.2131 47.5631 71.5877 47.6993 71.9283 47.9377C72.3029 48.1421 72.6435 48.4145 72.9841 48.7551L74.1761 47.1544C73.8355 46.8139 73.3928 46.5073 72.8819 46.2349C72.3711 45.9624 71.8602 45.7581 71.2812 45.6219C70.4639 45.4175 69.7146 45.3494 69.1016 45.4516C68.4885 45.5537 67.9777 45.7921 67.6031 46.1327C67.2284 46.4733 66.956 46.882 66.8197 47.3928C66.7176 47.8356 66.6835 48.2443 66.7857 48.5848C66.8879 48.9254 67.0581 49.2319 67.2965 49.4703C67.5349 49.7087 67.8074 49.9471 68.1139 50.1515C68.4204 50.3558 68.761 50.5261 69.0675 50.6964C69.374 50.8667 69.6805 51.0029 69.953 51.1732C70.2255 51.3094 70.4298 51.4797 70.566 51.6159C70.7023 51.7862 70.7704 51.9565 70.7023 52.1608C70.6682 52.2971 70.6001 52.3992 70.4639 52.4673C70.3617 52.5355 70.1914 52.5695 69.953 52.6036C69.7487 52.6036 69.4762 52.5695 69.1356 52.5014C68.6588 52.3652 68.182 52.1608 67.7052 51.8884C67.2625 51.6159 66.8538 51.2753 66.5473 50.9348L65.2872 52.5014C65.6277 52.876 66.0705 53.2507 66.6835 53.5912C67.2625 53.9318 67.9096 54.2043 68.6248 54.3745C69.4762 54.5789 70.1914 54.647 70.8044 54.5448C71.4175 54.4427 71.9283 54.2043 72.3029 53.8637C72.6776 53.5231 72.95 53.1144 73.0863 52.6036C73.2565 52.0927 73.2565 51.7181 73.1884 51.3775Z" fill="#E7E9EE"/>
<path d="M40.4207 57.547C54.2493 53.3708 62.277 39.4464 58.3509 26.446C54.4249 13.4456 40.0318 6.29221 26.2032 10.4684C12.3745 14.6446 4.34682 28.569 8.27288 41.5694C12.1989 54.5698 26.592 61.7232 40.4207 57.547Z" fill="#E7E9EE"/>
<path d="M58.9869 26.2452C54.9682 12.8948 40.1533 5.53841 25.9856 9.82961C19.1401 11.9071 13.4525 16.3686 9.9787 22.3967C6.50487 28.4248 5.65344 35.3384 7.5947 41.8093C9.53596 48.2801 14.0656 53.559 20.298 56.6582C24.0443 58.5313 28.1652 59.4849 32.3543 59.4849C35.1129 59.4849 37.8715 59.0763 40.5961 58.2589C54.7639 53.8996 63.0397 39.5615 58.9869 26.2452ZM57.0797 41.4687L57.0457 41.026L56.7732 38.0289C56.4667 38.9825 56.0921 39.9021 55.6834 40.7876L55.9218 43.2737L55.9899 43.9889C55.5472 44.8404 55.0704 45.6237 54.5255 46.407L54.4573 45.5215L54.253 43.3759C53.8784 43.9889 53.4697 44.5679 53.061 45.1469L53.2313 47.0881L53.3335 48.0758C52.8567 48.6888 52.3458 49.2678 51.8349 49.8127L51.7328 48.7569L51.5625 46.9519C51.1538 47.3946 50.7451 47.8033 50.3024 48.2461L50.4727 49.9489L50.5748 51.0388C50.064 51.4815 49.5531 51.9243 49.0082 52.367L48.906 51.2431L48.7357 49.6424C48.3271 49.983 47.8843 50.2895 47.4416 50.6301L47.5778 52.1967L47.68 53.3547C47.1691 53.6952 46.6583 54.0358 46.1133 54.3764L46.0112 53.2184L45.8749 51.7199C45.4663 51.9924 45.0235 52.2308 44.5808 52.4692L44.717 53.9336L44.8192 55.0916C44.3083 55.364 43.7634 55.6024 43.2185 55.8408L43.1163 54.6829L42.9801 53.1844C42.5373 53.3887 42.0946 53.559 41.6519 53.7293L41.7881 55.1256L41.8903 56.2836C41.3453 56.4879 40.8345 56.6582 40.2555 56.8285L40.1533 55.6705L40.0171 54.2742C39.8468 54.3423 39.6425 54.3764 39.4722 54.4445C39.1997 54.5126 38.9613 54.6148 38.6889 54.6829L38.8251 56.0452L38.9273 57.2031C38.3824 57.3393 37.8375 57.4415 37.2925 57.5437L37.1904 56.4198L37.0541 55.0575C36.6114 55.1597 36.1687 55.2278 35.6919 55.2959L35.8281 56.6582L35.9303 57.748C35.3853 57.8161 34.8064 57.8843 34.2615 57.9183L34.1593 56.8285L34.0231 55.4662C33.5803 55.5003 33.1035 55.5343 32.6608 55.5684L32.797 56.9307L32.8992 57.9864C32.3543 57.9864 31.7753 57.9864 31.2304 57.9524L31.1282 56.9307L30.992 55.5684C30.5492 55.5684 30.0724 55.5343 29.6297 55.5003L29.7659 56.8625L29.8681 57.8502C29.2891 57.7821 28.7442 57.714 28.1652 57.6459L28.063 56.7263L27.9268 55.33C27.45 55.2619 27.0073 55.1937 26.5305 55.0916L26.6667 56.4879L26.7348 57.3734C26.1558 57.2372 25.5769 57.1009 25.032 56.9307L24.9638 56.1133L24.8276 54.6829C24.3508 54.5467 23.874 54.4104 23.4313 54.2742L23.5675 55.7387L23.6356 56.4879C23.0566 56.2836 22.4777 56.0452 21.8987 55.8068L21.8306 55.1597L21.6944 53.6271C21.2176 53.4228 20.7408 53.2184 20.264 52.98L20.4002 54.5467L20.4683 55.0916C19.8553 54.7851 19.2763 54.4445 18.6973 54.0699L18.6633 53.6612L18.493 51.9924C17.9821 51.6859 17.5053 51.3793 17.0285 51.0388L17.1988 52.7757L17.2329 53.0481C16.5858 52.5713 16.0068 52.0945 15.4278 51.5496V51.5156L15.2576 49.6084C14.7467 49.1656 14.2358 48.6888 13.759 48.212L13.9293 50.0511C11.6475 47.5649 9.94465 44.602 8.92293 41.2984C7.08384 35.2022 7.86716 28.6973 11.1707 22.9757C14.4742 17.2541 19.8893 13.031 26.3942 11.0557C28.9826 10.2724 31.605 9.89773 34.1933 9.89773C44.8873 9.89773 54.6276 16.4026 57.6928 26.5857C59.1913 31.6262 58.8848 36.8029 57.0797 41.4687Z" fill="#191A1F"/>
<path d="M39.6979 55.1274C53.5266 50.9513 61.5542 37.0269 57.6282 24.0265C53.7021 11.0261 39.3091 3.87266 25.4804 8.04885C11.6517 12.225 3.62404 26.1494 7.5501 39.1498C11.4762 52.1502 25.8692 59.3036 39.6979 55.1274Z" fill="#E7E9EE"/>
<path d="M58.2718 23.8276C56.3305 17.3568 51.8009 12.0779 45.5684 8.97871C39.336 5.91357 32.1159 5.3346 25.2704 7.41208C11.1026 11.7033 2.86078 26.0413 6.87952 39.3577C10.1149 50.1198 20.4002 56.9993 31.7072 56.9993C34.3977 56.9993 37.1563 56.5906 39.8809 55.7732C46.7264 53.6958 52.4139 49.2343 55.8878 43.2062C59.3956 37.2121 60.213 30.2985 58.2718 23.8276ZM54.7298 42.5591C51.4263 48.2807 46.0112 52.5038 39.5063 54.4791C26.0537 58.5319 11.9881 51.5842 8.17369 38.9831C4.35929 26.3479 12.2265 12.7931 25.6791 8.70626C28.2674 7.92294 30.8898 7.54831 33.5122 7.54831C37.4969 7.54831 41.4135 8.4338 44.9554 10.2048C50.8473 13.1337 55.1385 18.106 56.9776 24.2363C58.8167 30.3325 58.0334 36.8375 54.7298 42.5591Z" fill="#191A1F"/>
<path d="M54.4572 24.9846C51.0174 13.6435 38.4163 7.34296 26.36 10.9871C14.3038 14.6312 7.28804 26.8237 10.6938 38.1987C12.3626 43.716 16.211 48.2115 21.5239 50.8339C24.7253 52.4346 28.2332 53.2179 31.8092 53.2179C34.1591 53.2179 36.5091 52.8774 38.825 52.1622C44.6487 50.3912 49.5189 46.6109 52.4478 41.4682C55.4108 36.3597 56.126 30.5018 54.4572 24.9846Z" fill="#191A1F"/>
<path d="M24.18 30.3307C23.9075 30.1264 23.601 29.922 23.2604 29.7858C22.9539 29.6496 22.6474 29.5133 22.3409 29.4112L22.5452 27.7083C22.7155 27.7424 22.8858 27.8105 23.0561 27.8786C23.4648 28.0489 23.8394 28.2532 24.214 28.5257L25.2017 26.7888C24.793 26.4822 24.3162 26.2438 23.8053 26.0395C23.4648 25.9033 23.1242 25.8352 22.7836 25.767L22.9539 24.4388L21.4554 24.2345L21.2851 25.5968C20.8083 25.5968 20.3656 25.6649 19.9569 25.767C19.3438 25.9714 18.9011 26.2438 18.5605 26.6185C18.22 26.9931 18.0156 27.4699 17.9816 27.9808C17.9134 28.4576 17.9816 28.8322 18.1178 29.1728C18.254 29.5133 18.4584 29.7517 18.7308 29.9901C19.0033 30.1945 19.3098 30.3988 19.6504 30.5691C19.9909 30.7394 20.3315 30.8756 20.6721 30.9778L20.4677 32.6466C20.1272 32.5785 19.8206 32.4763 19.5141 32.306C19.0373 32.0676 18.5946 31.8292 18.254 31.5227L17.2323 33.2256C17.6069 33.5661 18.1178 33.8386 18.7649 34.111C19.2417 34.3154 19.7525 34.4516 20.2634 34.5538L20.0931 35.882L21.5916 36.0523L21.7619 34.656C22.2046 34.656 22.6133 34.5878 22.988 34.4857C23.601 34.2813 24.0437 34.0089 24.3843 33.6002C24.7249 33.1915 24.9292 32.7488 24.9633 32.2379C25.0314 31.7952 24.9633 31.3865 24.827 31.08C24.6568 30.8075 24.4524 30.535 24.18 30.3307ZM20.638 28.6619C20.4677 28.5257 20.3996 28.3554 20.4337 28.1851C20.4677 28.0489 20.5018 27.9126 20.604 27.8105C20.7061 27.7083 20.8424 27.6402 21.0467 27.6061L20.9105 28.8662C20.8083 28.7981 20.7061 28.73 20.638 28.6619ZM22.3068 32.5444C22.2387 32.6125 22.1025 32.6806 21.9662 32.7147L22.1025 31.5908C22.1706 31.6249 22.2387 31.6589 22.2728 31.727C22.443 31.8633 22.5112 32.0336 22.4771 32.2379C22.4771 32.3401 22.409 32.4422 22.3068 32.5444Z" fill="#E7E9EE"/>
<path d="M26.7683 26.3606L25.739 35.0529L28.208 35.3453L29.2373 26.653L26.7683 26.3606Z" fill="#E7E9EE"/>
<path d="M36.3048 32.2052L33.0013 27.0966L30.9919 26.8582L29.9702 35.5768L32.3542 35.8493L32.8991 31.2175L36.2027 36.292L38.212 36.5304L39.2338 27.8458L36.8498 27.5734L36.3048 32.2052Z" fill="#E7E9EE"/>
<path d="M47.0325 33.7704C46.8963 33.4639 46.6919 33.1915 46.4195 32.9531C46.147 32.7487 45.8405 32.5444 45.4999 32.4082C45.1593 32.2379 44.8188 32.1357 44.4782 31.9995C44.1376 31.8973 43.8311 31.7611 43.5246 31.6589C43.2521 31.5567 43.0137 31.4205 42.8435 31.3183C42.6732 31.1821 42.6051 31.0118 42.6391 30.8415C42.6732 30.7053 42.7072 30.5691 42.8094 30.4669C42.9116 30.3647 43.0819 30.2966 43.2862 30.2285C43.4905 30.1604 43.763 30.1944 44.1036 30.2285C44.4782 30.2626 44.8869 30.3647 45.2615 30.535C45.6702 30.7053 46.0448 30.9096 46.4195 31.1821L47.4071 29.4452C46.9984 29.1387 46.5216 28.9003 46.0108 28.6959C45.4659 28.4916 44.9209 28.3554 44.342 28.3213C43.4905 28.2191 42.7753 28.2532 42.1623 28.4575C41.5493 28.6619 41.1065 28.9343 40.766 29.309C40.4254 29.6836 40.2211 30.1604 40.187 30.6712C40.1189 31.148 40.187 31.5227 40.3232 31.8632C40.4595 32.2038 40.6638 32.4422 40.9363 32.6806C41.2087 32.885 41.5152 33.0893 41.8558 33.2596C42.1964 33.4299 42.5369 33.5661 42.8775 33.6683C43.2181 33.7704 43.5246 33.9067 43.7971 34.0088C44.0695 34.111 44.3079 34.2472 44.4782 34.3835C44.6485 34.5197 44.7166 34.69 44.6825 34.8943C44.6825 35.0306 44.6144 35.1668 44.5123 35.2349C44.4101 35.3371 44.2398 35.4052 44.0355 35.4392C43.8311 35.4733 43.5587 35.4733 43.2181 35.4392C42.7072 35.3711 42.2304 35.2349 41.7196 35.0306C41.2428 34.7922 40.8 34.5538 40.4595 34.2472L39.4377 35.9501C39.8124 36.2907 40.3232 36.5631 40.9703 36.8356C41.6174 37.108 42.2645 37.2783 42.9797 37.3464C43.8311 37.4486 44.5804 37.4146 45.1593 37.2102C45.7724 37.0059 46.2151 36.7334 46.5557 36.3247C46.8963 35.916 47.1006 35.4733 47.1347 34.9624C47.2368 34.4856 47.1687 34.077 47.0325 33.7704Z" fill="#E7E9EE"/>
</svg>
