<svg width="128" height="128" viewBox="0 0 128 128" fill="none" xmlns="http://www.w3.org/2000/svg">
<path d="M64 126.698C98.6271 126.698 126.698 98.6271 126.698 64C126.698 29.3729 98.6271 1.30214 64 1.30214C29.3729 1.30214 1.30215 29.3729 1.30215 64C1.30215 98.6271 29.3729 126.698 64 126.698Z" fill="#191A1F"/>
<path d="M64 128C28.7121 128 0 99.2879 0 64C0 28.7121 28.7121 0 64 0C99.2879 0 128 28.7121 128 64C128 99.2879 99.2879 128 64 128ZM64 2.60427C30.1445 2.60427 2.60427 30.1445 2.60427 64C2.60427 97.8555 30.1445 125.396 64 125.396C97.8555 125.396 125.396 97.8555 125.396 64C125.396 30.1445 97.8555 2.60427 64 2.60427Z" fill="#E7E9EE"/>
<path d="M119.666 35.0926C110.616 7.16175 76.9563 -7.03154 44.5982 3.45066C28.9725 8.52899 15.9512 18.4903 7.94304 31.6419C-0.1302 44.7935 -2.0834 59.5076 2.27875 73.0498C6.64091 86.5921 16.9278 97.3347 31.1211 103.325C38.8037 106.515 47.1373 108.142 55.6663 108.142C62.8932 108.142 70.1852 106.97 77.3469 104.692C92.9725 99.6134 105.994 89.6521 114.002 76.5005C122.01 63.3489 124.029 48.6348 119.666 35.0926Z" fill="#E7E9EE"/>
<path d="M70.2027 82.6019C99.3496 73.1722 117.397 48.2782 110.513 26.9996C103.629 5.72104 74.42 -3.88439 45.2731 5.5453C16.1262 14.975 -1.9213 39.869 4.96282 61.1476C11.8469 82.4262 41.0558 92.0316 70.2027 82.6019Z" fill="#191A1F"/>
<path d="M47.8535 87.5687C26.824 87.5687 8.98476 77.8678 3.7111 61.591C0.260444 50.8484 2.6694 38.999 10.5473 28.1262C18.295 17.4486 30.5351 8.98474 44.8586 4.29705C59.1821 -0.325529 74.0265 -0.651064 86.6572 3.51577C99.353 7.68261 108.273 15.8861 111.788 26.6287C115.239 37.3062 112.83 49.2208 104.952 60.0285C97.2045 70.7711 84.9644 79.235 70.6409 83.8576C62.8932 86.3967 55.2106 87.5687 47.8535 87.5687ZM67.7111 3.25535C60.4842 3.25535 53.0621 4.42727 45.705 6.83622C31.9024 11.3286 20.1831 19.4669 12.6958 29.7538C5.27367 39.8454 2.99493 50.9135 6.18516 60.7447C12.8261 81.3184 41.3428 90.5636 69.7945 81.3835C83.5972 76.8912 95.3164 68.7528 102.804 58.4659C110.161 48.3093 112.439 37.2411 109.249 27.3449C106.059 17.4486 97.7253 9.83113 85.8108 5.92473C80.1465 4.16684 74.0265 3.25535 67.7111 3.25535Z" fill="#E7E9EE"/>
<path d="M44.1424 62.177C39.585 62.177 35.0926 61.5259 31.056 60.1587C22.1363 57.2289 15.9512 51.5646 13.5422 44.0773C11.1333 36.59 12.8261 28.3215 18.295 20.8342C23.6989 13.412 32.0977 7.55238 41.9939 4.36215C51.8901 1.17191 62.177 0.976594 70.9013 3.84129C79.7559 6.7711 85.941 12.5005 88.35 19.9227C93.2981 35.1577 80.5371 52.9969 59.8983 59.7029C54.6246 61.3306 49.2859 62.177 44.1424 62.177ZM57.7498 4.36215C52.8667 4.36215 47.7884 5.14343 42.7752 6.7711C33.3998 9.83112 25.3917 15.3001 20.3784 22.3316C15.4303 29.1678 13.8678 36.6551 16.0163 43.296C18.1648 49.9369 23.764 55.0803 31.8372 57.6846C40.0407 60.354 49.6765 60.1587 59.117 57.1638C78.3886 50.9135 90.3683 34.5717 85.8759 20.704C83.7274 14.0631 78.1282 8.91962 70.0549 6.31535C66.2787 5.01322 62.1119 4.36215 57.7498 4.36215Z" fill="#E7E9EE"/>
<path d="M45.3144 37.6969C43.5565 37.6969 41.7986 37.4364 40.1709 36.9156C36.6552 35.7436 34.1811 33.4649 33.2045 30.4049C32.2279 27.41 32.879 24.0895 35.0926 21.0295C37.176 18.1648 40.4313 15.8861 44.2726 14.649C48.114 13.412 52.0855 13.3469 55.471 14.4537C58.9868 15.6256 61.4608 17.9044 62.4374 20.9644C63.4141 23.9593 62.763 27.2798 60.5494 30.3398C58.4659 33.2045 55.2106 35.4832 51.3693 36.7202C49.4161 37.3713 47.3327 37.6969 45.3144 37.6969ZM50.3927 16.2767C48.6348 16.2767 46.8769 16.5371 45.119 17.1231C41.7986 18.1648 38.999 20.118 37.2411 22.5921C35.5483 24.9359 35.0275 27.41 35.7437 29.6236C36.4598 31.8372 38.3479 33.53 41.0824 34.4415C43.9471 35.353 47.3327 35.2879 50.6531 34.2462C53.9736 33.2045 56.7732 31.2513 58.531 28.7772C60.2238 26.4334 60.7447 23.9593 60.0285 21.7457C59.3123 19.5321 57.4242 17.8393 54.6897 16.9278C53.3225 16.5371 51.8901 16.2767 50.3927 16.2767Z" fill="#E7E9EE"/>
<path d="M117.518 55.0804C109.445 44.4028 92.1262 30.8606 55.2106 24.7406C82.3601 19.532 98.8322 24.8057 108.077 30.4049C118.885 36.9807 122.401 45.4446 122.401 45.5097L123.638 45.0539L124.875 44.5982C124.745 44.2075 121.099 35.353 109.64 28.3215C99.939 22.3967 82.6857 16.7976 54.3642 22.2665C67.3856 13.998 79.3001 12.4354 87.4385 12.6958C97.7253 13.0865 104.431 16.3418 104.496 16.4069L105.668 14.0631C105.408 13.9329 98.4415 10.4822 87.6338 10.0916C78.9746 9.76603 66.409 11.3937 52.7365 20.1831C58.3357 13.3469 68.883 3.51577 82.6206 5.07834L82.881 2.47406C66.8647 0.651074 55.2106 12.5005 49.6765 19.7274C51.5646 8.91964 57.7498 2.92981 57.88 2.86471L56.1221 0.976608C55.7314 1.30214 48.4395 8.26857 46.8769 21.0295C38.8688 9.63581 30.9909 9.83113 30.6002 9.83113L30.7304 12.4354C30.7955 12.4354 37.0458 12.3052 43.9471 21.4201C31.1862 16.0163 16.9929 20.7691 16.2767 20.9644L17.1231 23.4385C17.2533 23.3734 31.5117 18.6857 43.4914 24.0895C27.9308 23.2431 17.4486 30.0794 11.2635 36.2645C4.03664 43.4914 1.04173 51.174 0.911512 51.4995L3.32046 52.411C3.32046 52.3459 6.31538 44.8586 13.1516 38.0224C20.9644 30.2096 30.47 26.3683 41.408 26.5636C23.6338 34.3764 13.6724 45.9654 8.3988 54.6897C2.08343 65.1068 0.911512 73.5707 0.846405 73.9613L3.45068 74.2869C3.45068 74.2218 4.68771 65.8881 10.7426 55.9268C15.5605 48.0488 24.35 37.6968 39.7803 30.2747C34.7019 34.9624 27.6053 42.645 21.5504 52.9969C3.97153 83.2065 15.5605 105.343 16.0814 106.254L18.3601 105.017C18.2299 104.822 6.96645 83.2065 23.8291 54.2991C30.0143 43.6867 37.5015 35.8739 42.5148 31.3815C39.1943 38.2177 34.5066 51.2391 31.1862 73.9613C25.4568 112.765 40.3662 123.247 41.0173 123.638L42.4497 121.489C42.3194 121.424 28.3215 111.333 33.7905 74.352C37.5015 48.179 43.2309 35.0275 46.2259 29.6887C45.705 38.6734 45.2493 59.3123 49.6765 85.4852C54.0387 111.528 65.8881 126.828 66.409 127.414L68.4273 125.786C68.2971 125.656 56.4476 110.356 52.2157 85.0295C47.9186 59.5076 48.2442 39.3245 48.765 30.2747C50.9135 34.8321 55.1455 43.3611 63.4792 59.0519C80.5371 91.0193 90.6287 120.252 90.6938 120.513L93.1679 119.666C93.0377 119.341 82.9461 89.9776 65.7579 57.8149C56.9685 41.3428 52.7365 32.8138 50.7833 28.5819C84.5087 51.8901 98.9624 71.0315 105.148 83.0763C112.049 96.5534 110.421 104.301 110.421 104.366L111.658 104.627L112.895 104.952C112.96 104.627 114.783 96.4232 107.622 82.2299C101.371 69.9247 86.9176 50.588 53.1272 27.0844C90.0427 32.8789 107.231 46.1607 115.174 56.5127C124.094 68.1668 123.508 78.7792 123.508 78.8444L126.112 79.0397C126.242 78.5839 126.893 67.5158 117.518 55.0804Z" fill="#E7E9EE"/>
<path d="M55.981 99.1162C55.9147 97.9046 55.9147 97.3307 55.9147 96.1191C59.1659 96.0553 60.7583 95.9278 63.9431 95.4814C63.8104 94.3973 63.7441 93.8234 63.545 92.7393C60.4929 93.1219 58.9005 93.2494 55.782 93.3132C55.7156 92.1653 55.7156 91.5914 55.7156 90.4436C59.0995 90.316 60.8246 90.1885 64.1422 89.7421C63.9431 88.658 63.8768 88.0841 63.7441 87C59.2322 87.6377 56.9099 87.7652 52.2654 87.7015C52.1327 93.4407 52.1327 96.2466 52 101.986C57.6398 102.05 60.4265 101.922 66 101.093C65.8009 100.009 65.7346 99.4351 65.6019 98.351C61.7536 98.8612 59.8294 98.9887 55.981 99.1162Z" fill="#191A1F"/>
<path d="M76.8327 84.0321C77.9822 87.1893 78.5872 88.7071 79.7972 91.8643C75.8648 89.7393 74.0498 88.5857 70.7224 86.0357C69.6335 86.3393 69.089 86.4607 68 86.7036C69.1495 91.9857 69.7544 94.6571 70.9039 100C72.2954 99.6964 73.0214 99.5143 74.4128 99.15C73.5053 95.8107 73.0818 94.1714 72.1744 90.8321C75.8648 93.4429 77.8612 94.5964 82.0961 96.6607C83.2456 96.2357 83.8505 95.9929 85 95.5071C82.8826 90.5286 81.7936 88.0393 79.6157 83C78.4662 83.425 77.9217 83.6071 76.8327 84.0321Z" fill="#191A1F"/>
<path d="M98.2019 82.6476C96.6439 80.5414 94.5017 80.8705 91.3209 82.0552C88.6595 83.0425 87.8805 83.0425 87.3612 82.2527C86.9717 81.5945 87.2963 80.7389 88.3998 80.0807C89.5033 79.3567 90.9315 79.0934 92.5543 79.0276C92.6192 77.7771 92.6192 77.1847 92.6192 76C90.6718 76 88.7893 76.4607 86.9717 77.6454C84.3751 79.2909 83.2716 81.7919 84.5049 84.1614C85.8681 86.7941 88.1401 86.5966 91.3859 85.4119C94.1123 84.4905 94.8263 84.4246 95.2807 85.0828C95.8 85.8068 95.2807 86.7941 93.9824 87.6497C92.2947 88.7028 90.542 88.9661 88.6595 88.7686C88.3349 90.0191 88.1401 90.6115 87.7507 91.862C90.3472 92.3227 93.1386 91.5988 95.4755 90.1508C98.7212 87.9788 99.9546 84.9512 98.2019 82.6476Z" fill="#191A1F"/>
</svg>
