<svg width="87" height="87" viewBox="0 0 87 87" fill="none" xmlns="http://www.w3.org/2000/svg">
<path d="M48.8304 40.5885C49.7394 41.5898 50.5515 42.9002 50.2054 43.2463C49.8594 43.5923 48.7981 42.9648 47.986 42.1527C47.1739 41.3406 45.236 49.9691 45.0468 50.4075C44.9084 50.7351 42.6474 53.319 41.4662 55.783C41.074 56.6043 41.1294 59.0775 40.9817 59.2252C40.3865 59.8204 39.639 59.7558 38.0102 58.3162C36.386 56.8766 35.5416 65.4359 37.4795 66.7878C40.7925 69.0995 47.4231 78.2956 56.1762 78.2956C66.3043 78.2956 75.685 67.7291 75.685 59.9727C75.685 52.2209 73.4101 49.277 73.5578 42.7756C73.6824 37.2709 77.6829 34.6455 77.6829 31.8954C77.6829 29.5837 74.2453 29.0208 73.1194 29.0208C71.1169 29.0208 65.9906 31.5863 65.9906 38.3368C65.9906 40.9623 65.2384 43.3386 62.553 43.3386C59.8675 43.3386 56.8637 39.6472 55.0503 36.7726" fill="url(#paint0_linear_0_345)"/>
<path d="M77.6921 31.8955C77.6921 30.6358 76.677 29.8975 75.5649 29.4822C76.8938 33.8934 70.1433 34.0872 70.1433 49.1248C70.1433 64.1624 61.3902 68.5367 57.7635 69.2888C54.1367 70.0409 47.7461 70.2578 42.8827 64.287C41.3877 62.4552 39.3621 60.4619 37.115 58.5793C36.1645 60.1712 35.9615 65.722 37.4887 66.7879C40.8017 69.0996 47.4323 78.2957 56.1854 78.2957C66.3135 78.2957 75.6942 67.7292 75.6942 59.9728C75.6942 52.2209 73.4194 49.2771 73.567 42.7757C73.687 37.2756 77.6921 34.6501 77.6921 31.8955Z" fill="url(#paint1_linear_0_345)"/>
<path d="M38.0148 58.3158C36.3906 56.8762 32.5423 52.7834 30.0415 50.7808C27.5406 48.7783 25.3534 48.806 23.8492 51.0115C22.3496 53.2171 26.7239 57.0977 27.7251 58.0989C29.257 59.6308 35.5416 65.4355 37.4795 66.792" fill="url(#paint2_linear_0_345)"/>
<path d="M45.0468 50.4073C44.8577 50.8457 43.5841 51.1456 41.0463 48.3863C39.1084 46.2776 33.9174 40.2146 30.8536 37.4599C27.7898 34.7099 25.4135 33.584 23.4109 35.019C21.4084 36.454 22.5481 39.4533 24.786 41.9588C27.5545 45.0549 30.7383 48.211 33.7882 51.2425C36.1738 53.6142 41.5724 58.6206 40.9771 59.2158" fill="url(#paint3_linear_0_345)"/>
<path d="M55.055 36.7726C53.2417 33.898 45.799 24.6419 43.9856 22.0164C42.1723 19.391 39.7313 19.391 38.0472 20.5768C36.3584 21.7627 35.86 24.139 39.6575 29.1915C42.0523 32.3753 44.0502 35.3099 48.8351 40.5885L54.3998 40.2009L55.055 36.7726Z" fill="url(#paint4_linear_0_345)"/>
<path d="M47.986 42.1524C47.1739 41.3403 39.985 32.818 38.3562 30.9907C35.3062 27.567 31.4442 20.2351 26.8346 23.5019C24.4122 25.2184 25.7226 27.7054 26.4147 28.7067C27.1022 29.708 36.0445 40.0253 36.9212 40.902C37.7979 41.7787 45.2359 49.9689 45.0514 50.4072" fill="url(#paint5_linear_0_345)"/>
<path d="M33.7927 51.2517C36.0444 53.4896 40.9769 58.0715 41.0277 59.082C41.7383 57.97 40.4371 54.6754 39.0621 53.5173C31.1211 46.8267 23.4431 36.0434 22.4695 36.3664C22.0496 37.9352 23.1108 40.09 24.7904 41.968C27.5543 45.0595 30.7381 48.2202 33.7927 51.2517Z" fill="url(#paint6_linear_0_345)"/>
<path d="M48.8302 40.5881C49.7023 41.5479 50.4821 42.7983 50.2376 43.1997C53.1399 40.865 47.003 34.0129 43.5285 29.897C40.8385 26.7133 40.1094 22.662 38.1807 20.4887C38.1346 20.5164 38.0884 20.5487 38.0423 20.581C36.3535 21.7669 35.8552 24.1432 39.6526 29.1957C42.052 32.3795 44.0453 35.3095 48.8302 40.5881Z" fill="url(#paint7_linear_0_345)"/>
<path d="M36.9211 40.9018C37.7978 41.7785 45.2359 49.9687 45.0513 50.4071C47.3491 47.3109 38.4392 38.2118 34.1249 33.6161C30.3828 29.6294 29.7414 26.1411 26.0916 24.1801C24.7351 25.8181 25.8148 27.8299 26.4146 28.7066C27.1021 29.7078 36.0444 40.0251 36.9211 40.9018Z" fill="url(#paint8_linear_0_345)"/>
<path d="M44.8807 50.587C44.6177 50.7485 44.0824 50.7623 43.2565 50.2825C43.8702 50.7854 44.4423 50.9746 44.8807 50.587Z" fill="url(#paint9_linear_0_345)"/>
<path d="M28.8235 67.009C28.7681 67.009 28.7127 66.9998 28.6573 66.986C22.9496 65.2464 16.7666 59.008 15.4239 53.6371C15.3501 53.3372 15.53 53.0281 15.8345 52.9542C16.1345 52.8804 16.4436 53.0604 16.5174 53.3649C17.754 58.3159 23.6971 64.2959 28.9849 65.9109C29.2803 66.0031 29.451 66.3169 29.3587 66.6122C29.2849 66.8522 29.0634 67.009 28.8235 67.009Z" fill="#393C47"/>
<path d="M31.5411 74.0918C31.4996 74.0918 31.4581 74.0871 31.4119 74.0779C26.687 72.9797 21.2008 69.4499 16.3559 64.3974C11.8247 59.6725 8.89013 54.6476 8.70095 51.2839C8.68249 50.9747 8.92243 50.7071 9.23158 50.6886C9.54073 50.6702 9.80835 50.9101 9.8268 51.2193C9.99753 54.2785 12.8814 59.1464 17.168 63.6176C21.8652 68.5178 27.153 71.9277 31.6703 72.9798C31.9749 73.049 32.1594 73.3535 32.0902 73.6534C32.0302 73.9164 31.7995 74.0918 31.5411 74.0918Z" fill="#393C47"/>
<path d="M55.7424 24.8311C55.4933 24.8311 55.2672 24.6649 55.198 24.4112C54.4043 21.4073 50.8099 17.0931 47.5338 16.2441C47.2339 16.1656 47.0539 15.8611 47.1278 15.5566C47.2062 15.2566 47.5107 15.0767 47.8153 15.1505C51.5066 16.1057 55.3964 20.7567 56.2869 24.1205C56.3653 24.4204 56.1854 24.7295 55.8855 24.808C55.8393 24.8264 55.7886 24.8311 55.7424 24.8311Z" fill="#393C47"/>
<path d="M62.8391 25.8323C62.5899 25.8323 62.3592 25.6616 62.2946 25.4078C60.1813 17.1023 52.2957 10.624 47.7969 9.81652C47.4923 9.76115 47.2893 9.47044 47.3447 9.16129C47.4 8.85676 47.6907 8.65374 47.9999 8.70911C52.9094 9.59042 61.1365 16.2671 63.3928 25.131C63.4712 25.4309 63.2867 25.74 62.9867 25.8139C62.9314 25.8277 62.8852 25.8323 62.8391 25.8323Z" fill="#393C47"/>
<path d="M73.6594 29.9575C75.5696 29.616 75.9065 29.8329 75.565 29.4822C74.6329 29.1362 73.6409 29.0162 73.1241 29.0162C71.1216 29.0162 65.9952 31.5817 65.9952 38.3322C65.9952 40.9577 65.2431 43.334 62.5577 43.334C61.4964 43.334 60.389 42.7572 59.3231 41.8898C64.0434 47.1176 67.7486 42.1943 68.3115 38.8167C68.8745 35.4391 68.0577 30.968 73.6594 29.9575Z" fill="url(#paint10_radial_0_345)"/>
<path d="M37.4657 21.0888C36.2983 22.4085 36.3352 24.7802 39.6528 29.1913C42.0476 32.3751 44.0455 35.3097 48.8304 40.5883C49.7394 41.5896 50.5515 42.9 50.2055 43.2461C51.0037 37.7737 43.2196 32.3982 40.6864 28.2685C38.6839 25.0016 38.2824 23.0729 37.4657 21.0888Z" fill="url(#paint11_linear_0_345)"/>
<path d="M36.9214 40.9021C37.7981 41.7788 45.2362 49.969 45.0516 50.4074C46.6942 49.2354 45.573 47.4128 43.0352 44.875C37.835 39.6748 30.5954 32.6843 27.6838 26.9304C27.407 26.3859 26.8994 25.9845 26.2949 25.9061C24.7261 25.703 25.8889 27.9455 26.4149 28.7115C27.1024 29.7082 36.0447 40.0255 36.9214 40.9021Z" fill="url(#paint12_linear_0_345)"/>
<path d="M24.7906 41.9632C27.5591 45.0593 30.7429 48.2154 33.7928 51.2469C36.1784 53.6186 41.577 58.625 40.9817 59.2202C44.327 56.4055 28.7864 46.222 22.465 36.3615C22.0497 37.9304 23.111 40.0852 24.7906 41.9632Z" fill="url(#paint13_linear_0_345)"/>
<path d="M40.2942 59.7878C40.6126 59.6632 40.7787 59.5156 40.8294 59.3541C40.2573 59.797 39.5005 59.6355 38.0102 58.3159C36.386 56.8762 32.5377 52.7835 30.0369 50.7809C28.9387 49.8996 27.9005 49.4151 26.9546 49.332C28.3112 50.1764 27.6836 50.4856 30.6967 52.7973C32.3117 54.0339 38.2316 60.5999 40.2942 59.7878Z" fill="url(#paint14_linear_0_345)"/>
<path d="M36.3583 44.7778C38.5547 47.4494 42.8367 51.8652 44.7608 50.6424C44.2301 50.8224 43.0212 50.5317 41.0464 48.3815C39.1084 46.2728 33.9174 40.2098 30.8536 37.4551C28.3712 35.2265 26.341 34.0637 24.5968 34.4697C29.6816 36.1493 34.2773 42.2492 36.3583 44.7778Z" fill="url(#paint15_linear_0_345)"/>
<path d="M38.7345 33.27C42.2413 37.0813 47.4369 44.6393 50.0762 43.3197C49.6425 43.4535 48.715 42.8767 47.9906 42.1523C47.1785 41.3402 39.9896 32.8178 38.3608 30.9906C36.2475 28.6189 33.7466 24.3738 30.8766 23.0726C33.7697 25.352 35.8922 30.1831 38.7345 33.27Z" fill="url(#paint16_linear_0_345)"/>
<path d="M59.323 41.894C57.685 40.5559 56.1531 38.5164 55.0549 36.7723C53.2415 33.8976 45.7989 24.6416 43.9855 22.0161C43.4318 21.2179 42.8227 20.6596 42.1906 20.3089C43.0349 21.5224 43.5102 23.2528 45.4205 25.3937C48.4843 28.8313 52.4848 35.0235 53.8644 37.1507C55.2394 39.2732 57.4589 43.7582 59.323 41.894Z" fill="url(#paint17_linear_0_345)"/>
<path d="M69.3544 72.4123C68.2147 69.6438 66.5536 67.9596 64.1496 69.5423C57.5928 73.8566 50.0487 72.4031 40.5942 64.7574C32.1595 57.9376 27.7991 53.0605 23.6971 51.2978C22.7142 53.5403 26.7701 57.1394 27.7299 58.0991C29.2618 59.631 35.5463 65.4357 37.4842 66.7922C40.7972 69.104 47.4278 78.3 56.1809 78.3C61.0673 78.2954 65.783 75.8314 69.3544 72.4123Z" fill="url(#paint18_linear_0_345)"/>
<path d="M73.5624 42.7753C73.687 37.2706 77.6874 34.6451 77.6874 31.8951C77.6874 31.083 77.2676 30.4924 76.6677 30.0586C77.4014 32.1996 75.6572 34.1007 73.0594 37.3352C70.2448 40.8374 69.6218 46.2775 71.5598 51.7176C73.4978 57.1577 71.0615 64.6604 67.121 67.0367C63.1805 69.413 57.948 79.8549 42.9611 68.0564C42.9565 68.0518 42.9565 68.0518 42.9519 68.0472C42.0383 67.1982 41.1339 66.4461 40.2157 65.8785C33.885 61.9565 30.2814 58.4312 27.5544 55.4689C27.0191 54.8875 25.5795 52.6497 23.863 53.3879C24.7213 55.3305 27.033 57.4023 27.7251 58.099C29.257 59.6309 35.5415 65.4355 37.4795 66.7921C37.7333 66.9675 38.0055 67.1843 38.2962 67.4335C38.37 67.4981 38.4485 67.5627 38.5269 67.6319C38.5453 67.6504 38.5684 67.6688 38.5869 67.6873C38.6376 67.7334 38.6838 67.7749 38.7345 67.8211C38.7438 67.8303 38.7576 67.8395 38.7668 67.8534C40.7325 69.6391 43.441 72.5967 46.7586 74.9085C46.7586 74.9085 46.7632 74.9085 46.7632 74.9131C47.0539 75.1161 47.3492 75.3145 47.6491 75.5083C47.6537 75.5129 47.6584 75.5129 47.663 75.5175C47.9629 75.7067 48.2628 75.8913 48.572 76.0666C48.5766 76.0666 48.5766 76.0712 48.5812 76.0712C50.879 77.3909 53.4215 78.2999 56.1715 78.2999C66.2996 78.2999 75.6803 67.7334 75.6803 59.977C75.6895 52.2205 73.4147 49.2767 73.5624 42.7753Z" fill="url(#paint19_radial_0_345)"/>
<defs>
<linearGradient id="paint0_linear_0_345" x1="70.7658" y1="80.2994" x2="62.4179" y2="60.7416" gradientUnits="userSpaceOnUse">
<stop offset="0.00132565" stop-color="#F0C492"/>
<stop offset="1" stop-color="#F8DBBA"/>
</linearGradient>
<linearGradient id="paint1_linear_0_345" x1="76.7641" y1="71.8703" x2="59.2552" y2="50.9847" gradientUnits="userSpaceOnUse">
<stop offset="0.00132565" stop-color="#F0C492"/>
<stop offset="1" stop-color="#F8DBBA"/>
</linearGradient>
<linearGradient id="paint2_linear_0_345" x1="25.6275" y1="52.7915" x2="35.9452" y2="60.3891" gradientUnits="userSpaceOnUse">
<stop offset="0.00132565" stop-color="#F0C492"/>
<stop offset="1" stop-color="#F8DBBA"/>
</linearGradient>
<linearGradient id="paint3_linear_0_345" x1="21.8707" y1="32.6825" x2="39.9737" y2="51.6296" gradientUnits="userSpaceOnUse">
<stop offset="0.00132565" stop-color="#F0C492"/>
<stop offset="1" stop-color="#F8DBBA"/>
</linearGradient>
<linearGradient id="paint4_linear_0_345" x1="41.4239" y1="23.7435" x2="51.9292" y2="40.2519" gradientUnits="userSpaceOnUse">
<stop offset="0.00132565" stop-color="#F0C492"/>
<stop offset="1" stop-color="#F8DBBA"/>
</linearGradient>
<linearGradient id="paint5_linear_0_345" x1="30.5795" y1="26.4856" x2="44.8368" y2="45.7454" gradientUnits="userSpaceOnUse">
<stop offset="0.00132565" stop-color="#F0C492"/>
<stop offset="1" stop-color="#F8DBBA"/>
</linearGradient>
<linearGradient id="paint6_linear_0_345" x1="35.7676" y1="43.9338" x2="29.7835" y2="49.5711" gradientUnits="userSpaceOnUse">
<stop stop-color="#F0C492" stop-opacity="0"/>
<stop offset="1" stop-color="#F0C492"/>
</linearGradient>
<linearGradient id="paint7_linear_0_345" x1="47.5356" y1="28.8095" x2="38.531" y2="36.9387" gradientUnits="userSpaceOnUse">
<stop stop-color="#F0C492" stop-opacity="0"/>
<stop offset="1" stop-color="#F0C492"/>
</linearGradient>
<linearGradient id="paint8_linear_0_345" x1="39.2529" y1="34.601" x2="26.8716" y2="43.6524" gradientUnits="userSpaceOnUse">
<stop stop-color="#F0C492" stop-opacity="0"/>
<stop offset="1" stop-color="#F0C492"/>
</linearGradient>
<linearGradient id="paint9_linear_0_345" x1="48.4762" y1="47.2172" x2="36.0948" y2="56.2687" gradientUnits="userSpaceOnUse">
<stop stop-color="#F0C492" stop-opacity="0"/>
<stop offset="1" stop-color="#F0C492"/>
</linearGradient>
<radialGradient id="paint10_radial_0_345" cx="0" cy="0" r="1" gradientUnits="userSpaceOnUse" gradientTransform="translate(64.6954 32.5119) scale(14.8608 14.8608)">
<stop stop-color="#F0C492" stop-opacity="0"/>
<stop offset="1" stop-color="#F0C492"/>
</radialGradient>
<linearGradient id="paint11_linear_0_345" x1="49.1836" y1="27.2133" x2="41.4922" y2="34.3419" gradientUnits="userSpaceOnUse">
<stop offset="0.3118" stop-color="#F0C492" stop-opacity="0"/>
<stop offset="1" stop-color="#E6AF74"/>
</linearGradient>
<linearGradient id="paint12_linear_0_345" x1="43.294" y1="31.0771" x2="33.1639" y2="40.2067" gradientUnits="userSpaceOnUse">
<stop offset="0.3118" stop-color="#F0C492" stop-opacity="0"/>
<stop offset="1" stop-color="#E6AF74"/>
</linearGradient>
<linearGradient id="paint13_linear_0_345" x1="39.8704" y1="40.9515" x2="27.364" y2="51.4569" gradientUnits="userSpaceOnUse">
<stop offset="0.3118" stop-color="#F0C492" stop-opacity="0"/>
<stop offset="1" stop-color="#E6AF74"/>
</linearGradient>
<linearGradient id="paint14_linear_0_345" x1="26.224" y1="48.5831" x2="40.7626" y2="60.4016" gradientUnits="userSpaceOnUse">
<stop offset="0.3118" stop-color="#F0C492" stop-opacity="0"/>
<stop offset="1" stop-color="#E6AF74"/>
</linearGradient>
<linearGradient id="paint15_linear_0_345" x1="29.0068" y1="33.9338" x2="40.3563" y2="51.1925" gradientUnits="userSpaceOnUse">
<stop offset="0.3118" stop-color="#F0C492" stop-opacity="0"/>
<stop offset="1" stop-color="#E6AF74"/>
</linearGradient>
<linearGradient id="paint16_linear_0_345" x1="37.8967" y1="35.1666" x2="41.0858" y2="32.7279" gradientUnits="userSpaceOnUse">
<stop offset="0.3118" stop-color="#F0C492" stop-opacity="0"/>
<stop offset="1" stop-color="#E6AF74"/>
</linearGradient>
<linearGradient id="paint17_linear_0_345" x1="51.0641" y1="29.47" x2="45.1861" y2="60.8609" gradientUnits="userSpaceOnUse">
<stop offset="0.00132565" stop-color="#F0C492"/>
<stop offset="1" stop-color="#F8DBBA"/>
</linearGradient>
<linearGradient id="paint18_linear_0_345" x1="43.9274" y1="64.2465" x2="37.5492" y2="70.1088" gradientUnits="userSpaceOnUse">
<stop offset="0.3118" stop-color="#F0C492" stop-opacity="0"/>
<stop offset="1" stop-color="#F0C492"/>
</linearGradient>
<radialGradient id="paint19_radial_0_345" cx="0" cy="0" r="1" gradientUnits="userSpaceOnUse" gradientTransform="translate(49.4645 49.5616) rotate(48.1397) scale(43.0822 39.1078)">
<stop offset="0.6134" stop-color="#F0C492" stop-opacity="0"/>
<stop offset="1" stop-color="#E6AF74"/>
</radialGradient>
</defs>
</svg>
