<svg width="118" height="78" viewBox="0 0 118 78" fill="none" xmlns="http://www.w3.org/2000/svg">
<path d="M13.3205 0.86235L99.8158 22.2056L117.124 43.7645L32.1619 23.7148L13.3205 0.86235Z" fill="#E7E9EE"/>
<path d="M0.876343 47.257L90.0884 68.859L117.124 43.7645V50.6202L90.9647 77.1376L0.876343 52.9486V47.257Z" fill="#E7E9EE"/>
<path d="M117.474 42.9884C117.167 42.859 116.773 42.9022 116.51 43.1609L89.8255 67.9104L1.09543 46.4378C0.832529 46.3947 0.569625 46.4378 0.350538 46.6103C0.131452 46.7828 0 47.0415 0 47.3002V52.9917C0 53.3798 0.262904 53.7247 0.65726 53.8109L90.7456 78C90.8333 78 90.9209 78.0431 90.9647 78.0431C91.1838 78.0431 91.4467 77.9569 91.5782 77.7844L117.737 51.2239C117.912 51.0514 118 50.8358 118 50.6202V43.8076C118 43.4196 117.781 43.1177 117.474 42.9884ZM98.8957 61.874L101.043 59.8905V65.6683L98.8957 67.8673V61.874ZM97.143 69.6352L94.9959 71.8342V65.4959L97.143 63.5124V69.6352ZM102.795 58.2521L104.942 56.2687V61.7446L102.795 63.9436V58.2521ZM106.695 54.6302L108.842 52.6468V57.7778L106.695 59.9768V54.6302ZM110.595 51.0083L112.742 49.0249V53.8109L110.595 56.0099V51.0083ZM9.02637 50.1028L11.1734 50.6202V54.8027L9.02637 54.2421V50.1028ZM7.27367 53.7678L5.12662 53.2073V49.1973L7.27367 49.7148V53.7678ZM12.9261 51.0514L15.0732 51.5688V55.8375L12.9261 55.2769V51.0514ZM16.8258 52L18.9729 52.5174V56.9154L16.8258 56.3549V52ZM20.7256 52.9486L22.8726 53.466V57.9502L20.7256 57.3897V52.9486ZM24.6253 53.8972L26.7724 54.4146V58.9851L24.6253 58.4245V53.8972ZM28.5251 54.8458L30.6721 55.3632V60.063L28.5251 59.5025V54.8458ZM32.4248 55.7944L34.5719 56.3118V61.0978L32.4248 60.5373V55.7944ZM36.3245 56.743L38.4716 57.2604V62.1758L36.3245 61.6153V56.743ZM40.2243 57.6915L42.5466 58.2521V63.2537L40.2243 62.6501V57.6915ZM44.2993 58.6401L46.4463 59.1575V64.2886L44.2993 63.728V58.6401ZM48.199 59.5887L50.3461 60.1061V65.3234L48.199 64.7629V59.5887ZM52.0988 60.5373L54.2458 61.0547V66.4013L52.0988 65.8408V60.5373ZM55.9985 61.4859L58.1456 62.0033V67.4362L55.9985 66.8756V61.4859ZM59.8983 62.4345L62.0453 62.9519V68.471L59.8983 67.9104V62.4345ZM63.798 63.3831L65.945 63.9005V69.5489L63.798 68.9884V63.3831ZM67.6977 64.3317L69.8448 64.8491V70.5837L67.6977 70.0232V64.3317ZM71.5975 65.2803L73.7445 65.7977V71.6186L71.5975 71.058V65.2803ZM75.4972 66.1857L77.6443 66.7031V72.6534L75.4972 72.0929V66.1857ZM79.397 67.1343L81.544 67.6517V73.6882L79.397 73.1277V67.1343ZM83.2967 68.0829L85.4437 68.6003V74.7662L83.2967 74.2056V68.0829ZM87.1964 69.0315L89.3435 69.5489V75.801L87.1964 75.2405V69.0315ZM1.75269 48.3781L3.37393 48.7662V52.733L1.75269 52.3018V48.3781ZM91.0962 75.7579V69.1177L93.2432 67.1343V73.602L91.0962 75.7579ZM116.247 50.2322L114.495 52V47.3864L116.247 45.791V50.2322Z" fill="#191A1F"/>
<path d="M0.876343 47.2571L90.658 70.4975L117.124 43.7645L32.1619 23.7148L0.876343 47.2571Z" fill="#E7E9EE"/>
<path d="M90.658 71.3599C90.5704 71.3599 90.5266 71.3599 90.4389 71.3167L0.657258 48.0763C0.350537 47.9901 0.0876333 47.7313 -1.32993e-06 47.4295C-0.0876359 47.1277 0.0438159 46.7828 0.30672 46.5672L31.5923 23.0249C31.8114 22.8524 32.0743 22.8093 32.3372 22.8524L117.299 42.9022C117.606 42.9884 117.869 43.204 117.956 43.5058C118.044 43.8076 117.956 44.1095 117.737 44.3682L91.2715 71.1012C91.14 71.2736 90.8771 71.3599 90.658 71.3599ZM2.84812 46.869L90.3951 69.5489L115.415 44.2388L32.3372 24.6634L2.84812 46.869Z" fill="#191A1F"/>
<path d="M32.9068 27.2504L14.2406 40.7031L94.8645 61.4428L109.543 45.4461L32.9068 27.2504Z" fill="#191A1F"/>
<path d="M15.0732 46.1791L83.8225 63.8574L97.8879 48.6799L32.2495 33.1144L15.0732 46.1791Z" fill="#E7E9EE"/>
<path d="M91.5133 70.4623L89.7624 70.5389L90.062 77.1724L91.8129 77.0958L91.5133 70.4623Z" fill="#191A1F"/>
<path d="M117.825 43.2471L100.517 21.6882C100.385 21.5589 100.21 21.4295 100.035 21.3864L13.5395 0.0431131C13.189 -0.0431224 12.7946 0.0862308 12.5756 0.431173C12.3565 0.732997 12.4003 1.16417 12.6194 1.42288L31.4608 24.2753C31.5923 24.4046 31.7675 24.534 31.9428 24.5771L116.905 44.6269C116.992 44.6269 117.036 44.67 117.124 44.67C117.43 44.67 117.693 44.5406 117.869 44.2819C118.044 43.937 118.044 43.5489 117.825 43.2471ZM32.6439 22.9386L25.7207 14.5307L47.8923 19.791L47.4979 17.9801L23.9242 12.3748L15.6428 2.32835L99.29 22.9818L106.126 31.476L81.5002 25.6551L81.9384 27.5091L107.834 33.6318L114.845 42.3847L32.6439 22.9386Z" fill="#191A1F"/>
<path d="M98.7204 48.4643C98.6328 48.1625 98.3699 47.9469 98.1069 47.8607L32.4686 32.2521C32.2057 32.2089 31.9428 32.2521 31.7237 32.4245L29.27 34.2786L27.6925 33.8905L27.2982 35.5721L27.5173 35.6152L14.5474 45.4892C14.2844 45.7048 14.153 46.0066 14.2406 46.3516C14.3283 46.6534 14.5474 46.9121 14.8979 46.9983L83.6034 64.6766C83.6911 64.6766 83.7349 64.7197 83.8225 64.7197C84.0854 64.7197 84.3045 64.6335 84.4798 64.4179L93.5499 54.6733L96.3981 55.3632L96.7924 53.6816L94.8645 53.2073L96.0037 51.9569L97.2306 52.2587L97.625 50.5771L97.3182 50.4909L98.5013 49.2405C98.7204 49.068 98.808 48.723 98.7204 48.4643ZM83.5158 62.8657L17.0449 45.791L26.4657 38.6335V38.6766L91.5782 54.199L83.5158 62.8657ZM92.8927 52.7761L28.1745 37.34L29.7081 36.1758L94.0758 51.5257L92.8927 52.7761ZM31.4608 34.796L32.4686 34.0199L96.2228 49.1542L95.3903 50.0166L31.4608 34.796Z" fill="#191A1F"/>
<path d="M59.3286 19.5754C58.9343 18.9287 58.4961 18.3681 57.9703 17.8076C57.4445 17.2902 56.8749 16.8159 56.2614 16.4278C55.648 16.0398 54.9907 15.7811 54.3335 15.6086C53.6762 15.4361 53.1066 15.393 52.6246 15.4793C52.1426 15.5655 51.7482 15.7811 51.4415 16.126C51.1348 16.471 50.9595 16.859 50.9157 17.3764C50.8719 17.8939 50.9157 18.4975 51.091 19.1874C51.2662 19.8773 51.573 20.524 51.9673 21.1708C52.3617 21.8176 52.7999 22.3781 53.3257 22.9386C53.8515 23.456 54.4211 23.9303 55.0345 24.3184C55.648 24.7065 56.3052 24.9652 56.9625 25.1376C57.6198 25.3101 58.1894 25.3532 58.6714 25.267C59.1534 25.1808 59.5477 24.9652 59.8106 24.6202C60.1173 24.2753 60.2926 23.8872 60.3364 23.3267C60.3802 22.8093 60.3364 22.2056 60.1612 21.5157C60.0297 20.869 59.723 20.2222 59.3286 19.5754ZM57.4007 22.4212C57.2692 22.5937 57.1378 22.6799 56.9625 22.723C56.7872 22.7662 56.5681 22.7662 56.3052 22.6799C56.0423 22.5937 55.8232 22.5075 55.5603 22.335C55.2974 22.1625 55.0784 21.99 54.8593 21.7313C54.6402 21.4726 54.4649 21.2139 54.2896 20.9121C54.1144 20.6103 53.9829 20.2653 53.8953 19.9204C53.8076 19.5754 53.7638 19.2736 53.7638 19.0149C53.7638 18.7562 53.8515 18.5406 53.9391 18.4113C54.0706 18.2388 54.202 18.1526 54.3773 18.1094C54.5525 18.0663 54.7716 18.0663 55.0345 18.1526C55.2974 18.2388 55.5603 18.325 55.7794 18.4975C56.0423 18.67 56.2614 18.8424 56.4805 19.1011C56.6996 19.3599 56.8749 19.6186 57.0501 19.9204C57.2254 20.2222 57.3569 20.5672 57.4445 20.9121C57.5321 21.257 57.5759 21.5589 57.5759 21.8176C57.5759 22.0763 57.5321 22.2487 57.4007 22.4212Z" fill="#191A1F"/>
<path d="M67.0405 25.1808C66.8214 25.3101 66.5147 25.3101 66.1641 25.2239C65.9012 25.1376 65.5945 25.0514 65.3316 24.8789C65.0687 24.7065 64.8496 24.534 64.6305 24.2753C64.4114 24.0166 64.1923 23.7579 64.0609 23.456C63.8856 23.1542 63.7542 22.8093 63.6665 22.4643C63.5789 22.1194 63.5351 21.8176 63.5351 21.5589C63.5351 21.3002 63.6227 21.0846 63.7104 20.9552C63.798 20.7827 63.9733 20.6965 64.1923 20.6534C64.4114 20.6103 64.6305 20.6103 64.9372 20.6965C65.2878 20.7827 65.6383 20.9552 65.9889 21.2139C66.3394 21.4726 66.6461 21.8176 66.9967 22.2056L68.2235 20.9121C67.6539 20.2222 67.0405 19.6186 66.3394 19.1874C65.6383 18.7131 64.8934 18.3682 64.1047 18.1957C63.4475 18.0232 62.8778 17.9801 62.3958 18.0663C61.9138 18.1526 61.5195 18.3681 61.2566 18.67C60.9937 18.9718 60.8184 19.403 60.7308 19.9204C60.687 20.4378 60.7308 21.0415 60.9499 21.7745C61.1251 22.4643 61.4319 23.1542 61.8262 23.801C62.2206 24.4478 62.6587 25.0083 63.1845 25.5688C63.7104 26.0862 64.28 26.5605 64.8934 26.9055C65.5069 27.2935 66.1203 27.5522 66.7776 27.7247C67.5663 27.9403 68.2235 27.9403 68.7493 27.7678C69.2752 27.5953 69.6695 27.2935 69.8886 26.8192L67.6977 24.6633C67.4786 24.8789 67.2596 25.0514 67.0405 25.1808Z" fill="#191A1F"/>
<path d="M78.3015 28.1128C78.1701 27.5953 77.9072 27.0779 77.5566 26.6468C77.2061 26.2156 76.7679 25.8275 76.2421 25.5257C76.1983 25.5257 76.1983 25.4826 76.1545 25.4826C76.4174 25.3532 76.6365 25.1808 76.7241 24.9652C76.8556 24.6633 76.8556 24.2753 76.7241 23.801C76.5488 23.1111 76.1107 22.4643 75.4534 21.9038C74.7961 21.3002 73.9198 20.869 72.7805 20.6103L68.4865 19.4892L71.0279 28.6302L75.5849 29.7944C76.6803 30.0962 77.469 30.0962 77.951 29.7944C78.3892 29.4494 78.5206 28.8889 78.3015 28.1128ZM73.0434 22.6368C73.3502 22.723 73.5693 22.8093 73.7445 22.9817C73.9198 23.1111 74.0512 23.3267 74.0951 23.5423C74.1389 23.7579 74.1389 23.8872 74.0074 23.9735C73.9198 24.0597 73.7007 24.0597 73.394 23.9735L72.1233 23.6285L71.7289 22.2919L73.0434 22.6368ZM75.3658 27.5522C75.2343 27.6385 75.059 27.6385 74.7523 27.5522L73.1311 27.1211L72.7367 25.6982L74.358 26.1293C74.6647 26.2156 74.8838 26.3449 75.1029 26.4743C75.2781 26.6468 75.4096 26.8192 75.4972 27.0779C75.4972 27.2935 75.4972 27.466 75.3658 27.5522Z" fill="#191A1F"/>
</svg>
