<svg width="40" height="40" viewBox="0 0 40 40" fill="none" xmlns="http://www.w3.org/2000/svg">
<rect width="40" height="40" rx="20" fill="#393C47"/>
<path d="M11.1282 19.2915C11.1282 19.2915 19.2661 15.864 22.0884 14.6571C23.1704 14.1743 26.8394 12.6295 26.8394 12.6295C26.8394 12.6295 28.5329 11.9536 28.3918 13.595C28.3447 14.2709 27.9684 16.6363 27.5921 19.195C27.0276 22.8157 26.4161 26.7742 26.4161 26.7742C26.4161 26.7742 26.322 27.8846 25.5223 28.0777C24.7227 28.2708 23.4055 27.4019 23.1704 27.2087C22.9822 27.0639 19.6424 24.8915 18.4193 23.8294C18.0901 23.5398 17.7138 22.9605 18.4663 22.2846C20.1598 20.6915 22.1825 18.7122 23.4055 17.4571C23.97 16.8777 24.5345 15.526 22.1825 17.1674C18.8427 19.5329 15.5499 21.7536 15.5499 21.7536C15.5499 21.7536 14.7973 22.2363 13.3861 21.8018C11.9749 21.3674 10.3285 20.7881 10.3285 20.7881C10.3285 20.7881 9.19958 20.0639 11.1282 19.2915Z" fill="white"/>
</svg>
