<svg width="40" height="40" viewBox="0 0 40 40" fill="none" xmlns="http://www.w3.org/2000/svg">
<rect width="39.2453" height="40" rx="19.6226" fill="#272930"/>
<path d="M29.3628 13.6673C28.7148 13.9517 28.0336 14.1499 27.3359 14.2567C27.6621 14.1996 28.142 13.6007 28.3331 13.3583C28.6233 12.9926 28.8445 12.5752 28.9854 12.1272C28.9854 12.0939 29.018 12.0464 28.9854 12.0226C28.969 12.0134 28.9505 12.0087 28.9318 12.0087C28.9131 12.0087 28.8947 12.0134 28.8782 12.0226C28.1207 12.4411 27.3144 12.7605 26.4786 12.9733C26.4494 12.9823 26.4184 12.9832 26.3889 12.9756C26.3593 12.9681 26.3323 12.9525 26.3108 12.9305C26.2458 12.8515 26.1757 12.7768 26.1012 12.7071C25.7602 12.3955 25.3734 12.1404 24.9549 11.9513C24.39 11.7149 23.7797 11.6125 23.1703 11.6518C22.579 11.6899 22.0017 11.8517 21.4743 12.1272C20.9549 12.4176 20.4984 12.8121 20.1323 13.287C19.7472 13.7758 19.4692 14.3431 19.3169 14.9507C19.1914 15.5286 19.1771 16.1259 19.275 16.7094C19.275 16.8092 19.275 16.8235 19.1911 16.8092C15.8689 16.3101 13.1431 15.1075 10.9158 12.5265C10.818 12.4124 10.7667 12.4124 10.6875 12.5265C9.71831 14.0285 10.1889 16.4052 11.4004 17.5793C11.5635 17.7361 11.7312 17.8882 11.9083 18.0308C11.3528 17.9906 10.8109 17.837 10.3147 17.5793C10.2215 17.5175 10.1703 17.5507 10.1656 17.6648C10.1524 17.823 10.1524 17.982 10.1656 18.1401C10.2628 18.8981 10.5557 19.6161 11.0141 20.2208C11.4726 20.8255 12.0802 21.2951 12.775 21.5816C12.9443 21.6556 13.1208 21.7113 13.3015 21.7479C12.7873 21.8512 12.2599 21.8673 11.7405 21.7955C11.6287 21.7717 11.5868 21.8335 11.6287 21.9428C12.3137 23.8442 13.8 24.4241 14.8904 24.7473C15.0395 24.7711 15.1886 24.7711 15.3563 24.8091C15.3563 24.8091 15.3563 24.8091 15.3284 24.8376C15.0069 25.4365 13.7069 25.8406 13.1104 26.0497C12.0218 26.4486 10.8612 26.6011 9.70899 26.4965C9.52727 26.468 9.48534 26.4728 9.43874 26.4965C9.39215 26.5203 9.43874 26.5726 9.49 26.6201C9.72297 26.777 9.95595 26.9148 10.1982 27.0479C10.9196 27.4493 11.6821 27.7681 12.4721 27.9986C16.5631 29.1489 21.1667 28.3028 24.2374 25.1894C26.651 22.7461 27.499 19.376 27.499 16.0011C27.499 15.8728 27.6528 15.7968 27.7413 15.7302C28.3519 15.2448 28.8903 14.6716 29.3395 14.0285C29.4173 13.9326 29.4572 13.8106 29.4513 13.6863V13.6863C29.4513 13.615 29.4513 13.6292 29.3628 13.6673Z" fill="white"/>
</svg>
