<svg width="40" height="40" viewBox="0 0 40 40" fill="none" xmlns="http://www.w3.org/2000/svg">
<rect x="0.245239" width="39.2453" height="40" rx="19.6226" fill="#393C47"/>
<path d="M29.6081 13.6673C28.9601 13.9517 28.2788 14.1499 27.5812 14.2567C27.9073 14.1996 28.3873 13.6007 28.5783 13.3583C28.8685 12.9926 29.0897 12.5752 29.2306 12.1272C29.2306 12.0939 29.2632 12.0464 29.2306 12.0226C29.2142 12.0134 29.1958 12.0087 29.177 12.0087C29.1583 12.0087 29.1399 12.0134 29.1235 12.0226C28.3659 12.4411 27.5597 12.7605 26.7238 12.9733C26.6947 12.9823 26.6637 12.9832 26.6341 12.9756C26.6046 12.9681 26.5776 12.9525 26.5561 12.9305C26.491 12.8515 26.421 12.7768 26.3464 12.7071C26.0055 12.3955 25.6187 12.1404 25.2002 11.9513C24.6352 11.7149 24.025 11.6125 23.4156 11.6518C22.8242 11.6899 22.2469 11.8517 21.7195 12.1272C21.2001 12.4176 20.7437 12.8121 20.3776 13.287C19.9924 13.7758 19.7144 14.3431 19.5621 14.9507C19.4366 15.5286 19.4223 16.1259 19.5202 16.7094C19.5202 16.8092 19.5202 16.8235 19.4363 16.8092C16.1141 16.3101 13.3883 15.1075 11.161 12.5265C11.0632 12.4124 11.0119 12.4124 10.9327 12.5265C9.96355 14.0285 10.4342 16.4052 11.6456 17.5793C11.8087 17.7361 11.9765 17.8882 12.1535 18.0308C11.5981 17.9906 11.0562 17.837 10.56 17.5793C10.4668 17.5175 10.4155 17.5507 10.4109 17.6648C10.3977 17.823 10.3977 17.982 10.4109 18.1401C10.5081 18.8981 10.8009 19.6161 11.2594 20.2208C11.7178 20.8255 12.3255 21.2951 13.0202 21.5816C13.1895 21.6556 13.366 21.7113 13.5467 21.7479C13.0325 21.8512 12.5051 21.8673 11.9858 21.7955C11.874 21.7717 11.832 21.8335 11.874 21.9428C12.5589 23.8442 14.0453 24.4241 15.1356 24.7473C15.2847 24.7711 15.4338 24.7711 15.6016 24.8091C15.6016 24.8091 15.6016 24.8091 15.5736 24.8376C15.2521 25.4365 13.9521 25.8406 13.3557 26.0497C12.2671 26.4486 11.1064 26.6011 9.95423 26.4965C9.77251 26.468 9.73058 26.4728 9.68398 26.4965C9.63738 26.5203 9.68398 26.5726 9.73523 26.6201C9.96821 26.777 10.2012 26.9148 10.4435 27.0479C11.1648 27.4493 11.9274 27.7681 12.7173 27.9986C16.8084 29.1489 21.412 28.3028 24.4826 25.1894C26.8962 22.7461 27.7442 19.376 27.7442 16.0011C27.7442 15.8728 27.898 15.7968 27.9865 15.7302C28.5972 15.2448 29.1355 14.6716 29.5848 14.0285C29.6626 13.9326 29.7024 13.8106 29.6966 13.6863C29.6966 13.615 29.6966 13.6292 29.6081 13.6673Z" fill="white"/>
</svg>
