<svg width="80" height="80" viewBox="0 0 80 80" fill="none" xmlns="http://www.w3.org/2000/svg">
<path d="M22.8527 36.8757L32.1475 40.6926L35.6411 46.4179L74.6475 63.1935L74.7437 68.7341L22.8527 47.4336V36.8757Z" fill="#E7E9EE"/>
<path d="M71.5385 64.2401L27.1475 45.1866C26.9872 45.1251 26.7949 45.1251 26.6347 45.1866L4.96799 54.3286C4.74363 54.4209 4.58337 54.6364 4.58337 54.8827C4.58337 55.1289 4.74363 55.3444 4.96799 55.4367L50.9936 74.8903C51.0898 74.9211 51.1539 74.9519 51.25 74.9519C51.3462 74.9519 51.4423 74.9211 51.5385 74.8903L71.5705 65.3482C71.7949 65.2559 71.9231 65.0096 71.9231 64.7942C71.9231 64.5479 71.7629 64.3324 71.5385 64.2401Z" fill="#191A1F"/>
<path d="M30.4413 51.1974L29.9504 52.3349L38.0337 55.5525L38.5246 54.415L30.4413 51.1974Z" fill="#E7E9EE"/>
<path d="M39.608 60.8481L39.1171 61.9856L42.6405 63.3881L43.1314 62.2507L39.608 60.8481Z" fill="#E7E9EE"/>
<path d="M56.8125 62.9322L56.3218 64.0696L59.8452 65.4718L60.336 64.3344L56.8125 62.9322Z" fill="#E7E9EE"/>
<path d="M74.6475 63.1935L74.7437 68.7341L79.3591 66.0562L79.2629 60.5156L40.2245 43.7399L36.7309 38.0146L27.436 34.1978L22.8527 36.8757L32.1475 40.6926L35.6411 46.4178L74.6475 63.1935Z" fill="#E7E9EE"/>
<path d="M79.9039 60.4848C79.9039 60.2385 79.7437 60.0231 79.5193 59.9307L40.6731 43.2474L37.2757 37.676C37.2116 37.5529 37.1154 37.4605 36.9872 37.4298L27.6924 33.6129C27.5001 33.5206 27.2757 33.5514 27.1154 33.6437L22.5321 36.3217C22.5001 36.3524 22.468 36.3832 22.436 36.3832C22.436 36.3832 22.4039 36.3832 22.4039 36.414C22.3719 36.4448 22.3398 36.5063 22.3078 36.5371C22.3078 36.5371 22.3078 36.5679 22.2757 36.5679C22.2757 36.5987 22.2437 36.6295 22.2437 36.691C22.2437 36.7218 22.2437 36.7218 22.2437 36.7526C22.2437 36.7834 22.2437 36.8141 22.2437 36.8449V47.4028C22.2437 47.6491 22.4039 47.8646 22.6283 47.9569L74.5193 69.2574C74.5513 69.2574 74.5513 69.2574 74.5834 69.2882H74.6154C74.6475 69.2882 74.7116 69.319 74.7757 69.319C74.8398 69.319 74.9039 69.319 74.968 69.2882C75.0001 69.2882 75.0001 69.2574 75.0321 69.2574C75.0642 69.2574 75.0962 69.2266 75.1283 69.2266L79.7116 66.5487C79.9039 66.4255 80.0321 66.2409 80.0321 66.0254L79.9039 60.4848ZM23.4937 37.7991L31.6988 41.1851L35.0962 46.7257C35.1603 46.8488 35.2565 46.9103 35.3847 46.9719L74.0385 63.5937L74.1026 67.7799L23.4937 47.0027V37.7991ZM75.3847 67.6568L75.2885 63.1935C75.2885 63.132 75.2885 63.0704 75.2565 63.0088C75.1924 62.8549 75.0642 62.701 74.9039 62.6395L36.0578 45.9561L32.6924 40.3848C32.6283 40.2616 32.5321 40.1693 32.4039 40.1385L24.2629 36.7834L27.5001 34.8749L36.2821 38.5071L39.6796 44.0477C39.7437 44.1708 39.8398 44.2324 39.968 44.2939L78.6219 60.9157L78.718 65.7176L75.3847 67.6568Z" fill="#191A1F"/>
<path d="M0.641113 47.526L9.93599 51.3428L13.4296 57.0989L52.436 73.8438L52.5642 79.3844L0.641113 58.0839V47.526Z" fill="#E7E9EE"/>
<path d="M52.436 73.8438L52.5642 79.3844L57.1475 76.7064L57.0514 71.1658L18.0129 54.3902L14.5193 48.6649L5.22445 44.848L0.641113 47.526L9.93599 51.3428L13.4296 57.0989L52.436 73.8438Z" fill="#E7E9EE"/>
<path d="M57.6924 71.1658C57.6924 70.9196 57.5321 70.7041 57.3077 70.6118L18.4616 53.9284L15.0642 48.3571C15.0001 48.2339 14.9039 48.1416 14.7757 48.1108L5.48082 44.2939C5.28852 44.2016 5.06416 44.2324 4.9039 44.3247L0.320566 47.0027C0.288515 47.0335 0.256463 47.0642 0.224412 47.0642C0.224412 47.0642 0.192361 47.0642 0.192361 47.095C0.16031 47.1258 0.128258 47.1874 0.0962071 47.2181C0.0962071 47.2181 0.0962071 47.2489 0.0641558 47.2489C0.0321045 47.2797 0.0321045 47.3105 0.0321045 47.3721C0.0321045 47.4028 0.0321045 47.4028 0.0321045 47.4336C0.0321045 47.4644 0.0321045 47.4952 0.0321045 47.526V58.0839C0.0321045 58.3301 0.192361 58.5456 0.41672 58.6379L52.3398 79.9384C52.3718 79.9384 52.3718 79.9384 52.4039 79.9692H52.436C52.468 79.9692 52.5321 80 52.5962 80C52.6603 80 52.7244 80 52.7885 79.9692C52.8206 79.9692 52.8206 79.9384 52.8526 79.9384C52.8847 79.9384 52.9167 79.9076 52.9488 79.9076L57.5321 77.2297C57.7244 77.1066 57.8526 76.9219 57.8526 76.7064L57.6924 71.1658ZM3.10903 58.4225L1.53851 57.7761V48.5725L3.10903 49.2189V58.4225ZM5.96159 59.5921L4.39108 58.9457V49.7422L5.96159 50.3886V59.5921ZM7.24364 60.1154V50.9119L8.39749 51.3736L8.81416 51.5583V60.7618L7.24364 60.1154ZM10.0962 61.2851V52.8203L10.7372 53.8669L11.6667 55.4059V61.9315L10.0962 61.2851ZM12.9488 62.4548V57.4682C12.9808 57.499 13.0129 57.5298 13.0449 57.5606C13.077 57.5914 13.1411 57.6222 13.1731 57.6529L14.5193 58.2378V63.1012L12.9488 62.4548ZM17.3718 64.2709L15.8013 63.6245V58.7918L17.3718 59.469V64.2709ZM18.6539 64.8249V60.0231L20.2244 60.7003V65.4713L18.6539 64.8249ZM23.077 66.641L21.5065 65.9946V61.2543L23.077 61.9315V66.641ZM25.9295 67.8107L24.359 67.1643V62.4548L25.0962 62.7626L25.9295 63.132V67.8107ZM27.2116 68.334V63.686L27.6283 63.8707L28.7821 64.3632V68.9804L27.2116 68.334ZM31.6347 70.15L30.0642 69.5036V64.9173L31.6347 65.5945V70.15ZM32.9167 70.6733V66.1485L34.4872 66.8257V71.3197L32.9167 70.6733ZM37.3398 72.4894L35.7693 71.843V67.3797L37.3398 68.0569V72.4894ZM38.6218 73.0127V68.5802L40.1924 69.2574V73.6591L38.6218 73.0127ZM43.0449 74.8288L41.4744 74.1824V69.8115L43.0449 70.4886V74.8288ZM44.327 75.3521V71.0427L45.8975 71.7199V75.9984L44.327 75.3521ZM48.8142 77.1989L47.2116 76.5217V72.2739L48.8142 72.9819V77.1989ZM50.0962 77.7222V73.536L51.6667 74.2132V78.3686L50.0962 77.7222ZM53.1731 78.307L53.077 73.8438C53.077 73.7822 53.077 73.7207 53.0449 73.6591C52.9808 73.5052 52.8526 73.3513 52.6924 73.2897L13.8783 56.6064L10.4808 51.035C10.4167 50.9119 10.3206 50.8195 10.1924 50.7888L2.05134 47.4336L5.28851 45.5252L14.0706 49.1574L17.468 54.6979C17.5321 54.8211 17.6283 54.8826 17.7565 54.9442L56.4103 71.566L56.5065 76.3678L53.1731 78.307Z" fill="#191A1F"/>
<path d="M10.6411 22.4702L7.85266 49.1266L10.2565 47.8953L13.1411 21.6699L10.6411 22.4702Z" fill="#E7E9EE"/>
<path d="M7.85257 49.7422C7.72437 49.7422 7.59616 49.7114 7.50001 49.6499C7.3077 49.5267 7.21155 49.3113 7.21155 49.065L10.0321 22.4086C10.0641 22.1624 10.2244 21.9777 10.4487 21.8853L12.9167 21.085C13.109 21.0235 13.3654 21.0542 13.5257 21.1774C13.6859 21.3005 13.7821 21.516 13.75 21.7314L10.8654 47.9569C10.8333 48.1724 10.7051 48.3263 10.5128 48.4494L8.10898 49.6806C8.04488 49.7114 7.94873 49.7422 7.85257 49.7422ZM11.25 22.9319L8.58975 48.0492L9.64745 47.526L12.3718 22.5625L11.25 22.9319Z" fill="#191A1F"/>
<path d="M17.9809 21.7006L8.6219 18.8072L8.30139 21.6699L5.06421 48.1416L7.53216 49.1266L10.7693 22.4086L17.6283 24.5017L17.9809 21.7006Z" fill="#E7E9EE"/>
<path d="M8.62183 18.8072L11.827 17.576L20.2564 20.0693L17.9808 21.7007L8.62183 18.8072Z" fill="#E7E9EE"/>
<path d="M17.6283 24.5017L19.8719 23.2089L20.2565 20.0692L17.9809 21.7006L17.6283 24.5017Z" fill="#E7E9EE"/>
<path d="M20.8975 19.9461C20.8975 19.9154 20.8975 19.9153 20.8654 19.8846C20.8654 19.8538 20.8334 19.823 20.8334 19.7922C20.8334 19.7614 20.8013 19.7614 20.8013 19.7307C20.7693 19.6999 20.7693 19.6691 20.7372 19.6383C20.7372 19.6075 20.7052 19.6075 20.6731 19.6075C20.6411 19.5768 20.609 19.546 20.577 19.546C20.5449 19.546 20.5449 19.546 20.5129 19.5152C20.4808 19.5152 20.4808 19.4844 20.4488 19.4844L12.0193 16.9911C11.859 16.9296 11.7308 16.9296 11.5706 16.9911L8.36544 18.2224C8.36544 18.2224 8.36544 18.2224 8.33339 18.2224C8.30134 18.2224 8.26928 18.2532 8.23723 18.2532L8.20518 18.284L8.17313 18.3147C8.14108 18.3455 8.10903 18.3763 8.07698 18.4071C8.07698 18.4071 8.07698 18.4071 8.04493 18.4379C8.01287 18.4994 7.98082 18.5302 7.98082 18.5918V18.6225C7.98082 18.6533 7.98082 18.6533 7.98082 18.6841L7.66031 21.5467L4.42313 48.0185C4.39108 48.2955 4.55134 48.5417 4.80775 48.6649L7.2757 49.6499C7.3398 49.6806 7.43595 49.7114 7.5321 49.7114C7.66031 49.7114 7.75646 49.6806 7.85262 49.6191C8.01287 49.5267 8.14108 49.342 8.17313 49.1574L11.3142 23.1781L17.4039 25.025H17.436C17.468 25.025 17.5321 25.0558 17.5642 25.0558C17.5642 25.0558 17.5642 25.0558 17.5962 25.0558H17.6283C17.6603 25.0558 17.6924 25.0558 17.7244 25.0558C17.7565 25.0558 17.7565 25.0558 17.7885 25.0558C17.8206 25.0558 17.8526 25.025 17.8847 25.025H17.9167L20.1924 23.7322C20.3526 23.6399 20.4808 23.4552 20.5129 23.2705L20.8975 20.1308C20.8975 20.0693 20.8975 20.0077 20.8975 19.9461ZM11.859 18.2224L18.8783 20.3155L17.8526 21.0542L15.6411 20.3771L10.5129 18.7765L11.859 18.2224ZM10.9616 21.8238C10.7693 21.7622 10.577 21.793 10.4167 21.8853C10.2565 21.9777 10.1603 22.1624 10.1283 22.3163L6.98723 48.2032L5.73723 47.7107L8.91031 21.7007L9.16672 19.6075L17.2436 22.1316L17.1795 22.778L17.0513 23.6706L10.9616 21.8238ZM18.4295 23.332L18.4936 22.778L18.5898 22.07L19.4552 21.4544L19.2949 22.8703L18.4295 23.332Z" fill="#191A1F"/>
<path d="M33.3013 12.4355L30.4808 39.092L32.8847 37.8607L35.7693 11.6352L33.3013 12.4355Z" fill="#E7E9EE"/>
<path d="M30.4809 39.7076C30.3527 39.7076 30.2245 39.6768 30.1283 39.6152C29.936 39.4921 29.8398 39.2766 29.8398 39.0304L32.6604 12.374C32.6924 12.1277 32.8527 11.9431 33.077 11.8507L35.545 11.0504C35.7373 10.9888 35.9937 11.0196 36.1539 11.1427C36.3142 11.2659 36.4104 11.4813 36.3783 11.6968L33.4937 37.9223C33.4616 38.1377 33.3334 38.2917 33.1411 38.4148L30.7373 39.646C30.7052 39.6768 30.577 39.7076 30.4809 39.7076ZM33.9104 12.8973L31.2501 38.0146L32.3078 37.4913L35.0322 12.5279L33.9104 12.8973Z" fill="#191A1F"/>
<path d="M40.609 11.666L31.2821 8.7726L30.9295 11.6352L27.7244 38.0762L30.1923 39.092L33.4295 12.374L40.2564 14.4363L40.609 11.666Z" fill="#E7E9EE"/>
<path d="M31.2821 8.7726L34.4552 7.51057L42.9167 10.0346L40.609 11.666L31.2821 8.7726Z" fill="#E7E9EE"/>
<path d="M40.2565 14.4363L42.5321 13.1435L42.9167 10.0346L40.609 11.666L40.2565 14.4363Z" fill="#E7E9EE"/>
<path d="M43.5257 9.9115C43.5257 9.88072 43.5257 9.88071 43.4937 9.84993C43.4937 9.81915 43.4616 9.78837 43.4616 9.75759C43.4616 9.72681 43.4296 9.72681 43.4296 9.69603C43.3975 9.66525 43.3975 9.63447 43.3655 9.60369C43.3655 9.5729 43.3334 9.5729 43.3014 9.5729C43.2693 9.54212 43.2373 9.51134 43.2052 9.51134C43.1732 9.51134 43.1732 9.51134 43.1411 9.48056C43.1091 9.48056 43.109 9.44978 43.077 9.44978L34.6475 6.95651C34.5193 6.92573 34.3591 6.92573 34.2308 6.98729L31.0257 8.21854C31.0257 8.21854 31.0257 8.21854 30.9937 8.21854C30.9616 8.21854 30.9296 8.24932 30.8975 8.24932L30.8655 8.2801L30.8334 8.31088C30.8014 8.34166 30.7693 8.37244 30.7373 8.40322C30.7373 8.40322 30.7373 8.40322 30.7052 8.434C30.6732 8.49557 30.6411 8.52635 30.6411 8.58791V8.61869C30.6411 8.64947 30.6411 8.64947 30.6411 8.68025L30.3206 11.5429L27.0834 38.0146C27.0514 38.2916 27.2116 38.5379 27.468 38.661L29.936 39.646C30.0001 39.6768 30.0962 39.7076 30.1924 39.7076C30.3206 39.7076 30.4167 39.6768 30.5129 39.6152C30.6732 39.5229 30.8014 39.3382 30.8334 39.1535L33.9744 13.1743L40.0642 15.0212H40.0962C40.1283 15.0212 40.1924 15.0519 40.2244 15.0519C40.2244 15.0519 40.2244 15.0519 40.2565 15.0519H40.2885C40.3206 15.0519 40.3526 15.0519 40.3847 15.0519C40.4167 15.0519 40.4167 15.0519 40.4488 15.0519C40.4808 15.0519 40.5129 15.0212 40.5449 15.0212H40.577L42.8526 13.7283C43.0129 13.636 43.1411 13.4513 43.1732 13.2666L43.5578 10.127C43.5578 10.0346 43.5578 9.97306 43.5257 9.9115ZM34.4873 8.18776L41.5065 10.2809L40.4808 11.0196L38.2693 10.3424L33.1411 8.74182L34.4873 8.18776ZM33.6219 11.7891C33.4296 11.7276 33.2373 11.7584 33.077 11.8507C32.9167 11.943 32.8206 12.1277 32.7885 12.2816L29.6475 38.1685L28.3975 37.676L31.5706 11.6968L31.827 9.60369L39.9039 12.1277L39.8078 12.7741L39.6796 13.6668L33.6219 11.7891ZM41.0578 13.2666L41.1219 12.7741L41.218 12.0046L42.0834 11.389L41.9232 12.8049L41.0578 13.2666Z" fill="#191A1F"/>
<path d="M39.9359 6.77183L33.3334 4.77106C33.1731 4.74028 33.0129 4.74028 32.8847 4.80184L4.16671 17.6991C3.94235 17.7915 3.78209 18.0377 3.81414 18.2839C3.81414 18.5302 4.00645 18.7457 4.26286 18.838L11.0898 20.9927C11.1539 21.0235 11.218 21.0235 11.2821 21.0235C11.3782 21.0235 11.4744 20.9927 11.5706 20.9619L40.0641 7.91073C40.2885 7.7876 40.4488 7.57213 40.4167 7.32589C40.3847 7.07964 40.1923 6.83339 39.9359 6.77183Z" fill="#191A1F"/>
<path d="M13.0449 7.87995L28.8462 0.615616L32.0513 8.98807L16.3783 16.314L13.0449 7.87995Z" fill="#E7E9EE"/>
<path d="M25.0642 9.91149C25.0001 9.91149 24.9039 9.91149 24.8398 9.88071C24.6796 9.81915 24.5514 9.69603 24.4873 9.51134L23.1411 6.12542C23.0129 5.81761 23.1732 5.47902 23.4616 5.35589L27.0193 3.69372C27.1796 3.63215 27.3719 3.60137 27.5321 3.66294C27.6924 3.7245 27.8206 3.84762 27.8847 4.03231L29.1668 7.38745C29.295 7.69526 29.1347 8.00307 28.8462 8.15697L25.3527 9.84993C25.2565 9.88071 25.1603 9.91149 25.0642 9.91149ZM24.5193 6.18698L25.3847 8.40322L27.7565 7.26432L26.9232 5.07887L24.5193 6.18698Z" fill="#191A1F"/>
<path d="M21.0964 7.18622L16.072 9.36537L16.5997 10.4875L21.6241 8.30837L21.0964 7.18622Z" fill="#191A1F"/>
<path d="M20.5888 10.0136L17.0834 11.534L17.6111 12.6561L21.1165 11.1358L20.5888 10.0136Z" fill="#191A1F"/>
<path d="M16.3783 16.314L10.4808 15.1751L13.0449 7.87994L16.3783 16.314Z" fill="#E7E9EE"/>
<path d="M32.6603 8.7726L29.4231 0.400148C29.359 0.246243 29.2308 0.123119 29.0706 0.0307755C28.9103 -0.0307867 28.718 -0.0307867 28.5577 0.0307755L12.7565 7.32589C12.7244 7.35667 12.6924 7.35667 12.6603 7.38745C12.6283 7.41823 12.5642 7.44901 12.5321 7.51057C12.5321 7.51057 12.5321 7.54136 12.5001 7.54136C12.468 7.57214 12.436 7.6337 12.436 7.69526L9.87185 14.9904C9.80775 15.1443 9.8398 15.329 9.93595 15.4829C10.0321 15.6368 10.1924 15.7291 10.3526 15.7907L16.2501 16.9296C16.2821 16.9296 16.3462 16.9296 16.3783 16.9296C16.4103 16.9296 16.4744 16.9296 16.5065 16.9296H16.5385C16.5706 16.9296 16.6026 16.8988 16.6347 16.8988L32.3398 9.54213C32.6283 9.38822 32.7885 9.08041 32.6603 8.7726ZM13.077 9.69603L15.3526 15.4829L11.3142 14.6826L13.077 9.69603ZM16.7308 15.4829L15.2885 11.8199L13.8462 8.18776L28.4616 1.47749L31.2501 8.68026L16.7308 15.4829Z" fill="#191A1F"/>
</svg>
